<svg xmlns="http://www.w3.org/2000/svg" viewBox="0 0 64 64" xmlns:v="https://vecta.io/nano"><style><![CDATA[.l{stroke:#414042}.m{stroke-miterlimit:10}]]></style><path d="M19.9 17.1l23.7 23.7" fill="none" class="l m"/><g fill="#a7a9ac"><path d="M42.1 21h0 0z"/><path d="M42.1 21s-.1 0 0 0z"/></g><circle cx="31.8" cy="29" r="12.6" fill="#f5ab35"/><g fill="none" class="l"><circle cx="31.8" cy="29" r="12.6"/><g class="m"><path d="M42 38.8c-2.5 2.6-6 4.2-9.9 4.3s-7.5-1.5-10.1-4-4.2-6-4.3-9.9 1.5-7.5 4-10.1m.5-.4l.7-.7"/><path d="M24.5 16.8c2.2-1.4 4.8-2.3 7.6-2.3 3.9 0 7.4 1.6 10 4.1 2.6 2.6 4.2 6.1 4.2 10 0 3.2-1 6.1-2.8 8.5" stroke-dasharray="2.0184,2.0184"/><path d="M42.9 37.9c-.2.3-.4.5-.7.7"/></g></g><path d="M43.8 25.1h0 0zm.1.2c-.1.3 0 .1 0 0h0zM38.7 24s-2.3-2.2-.6-2.3v-.1c-.1 0 0 0 0 .1 0-.1-.3 0-.6 0-.1 0 .1-.1 0-.1v-.1c.1 0 .1 0 0-.1 0 0 .4-.3.5-.1 0-.1-.1-.1 0-.1 0-.2-1.2-1.3-2.1-1.9 0 0 0 .1-.1 0-.2-.2-.4-.3-.6-.3.1 0 0-.1 0-.1 1.3.3 2.1-1.3 3.1-.8 0 0 .1 0 .1.1l.1.1c-.1-.2 3.5 2.3 3.2 2.9l-.1.1c.1.1.1.1 0 .1.3.1.2 0 .1 0 .5.1.3.4.4.6 0-.2-1.3.1-.1.2-2.2-.4-2.6 1.1-3.3 1.8zm-.8-2.9h0 0zm0 .2h0 0zm-.3 1.1h0 0zm.1-.4c.1 0 .1-.1 0 0h0zm.3-.1c-.3 0 0 0 0 0h0zm-.1.3s.1.1 0 0h0zm.1-.1c.2.2-.2-.2 0 0h0zm3.5-.9h0 0zm-.2.7c.2-.2-.2-.1 0 0h0zm.1 0c.1-.1-.2 0 0 0h0zm.1-.7c-.1.1.2 0 0 0h0zm.6.9s-.1 0 0 0h0zm-.3-.9zm-.5.7c0-.1 0 0 0 0h0zm.5-.8zm-3.9.1c.1-.1-.1-.1 0 0h0zm-13.7.8l.1-.1-.1.1zm-2.4.7c.3 0-.4-.1 0 0h0zm2.6-.8s0 .1 0 0zm6.4-3c.1.1 0-.2 0 0h0zm.2.1h0-.1c-.1 0 0 0 .1 0zm0 0h0 0zm-.1-.7h0 0zm0 0h0 0zm.1-.1h0zm-.2-.1c.6.3.8.4 0 0h0zm0 0h0 0zm4.5 5.3h0zm-4.5-4.7s-.4-.1 0 0zm.5-.2l-.1-.1c-.1.1 0 .2.1.1zm.3-.6c.3.1-.3 0 0 0h0zm2.7 1.5s-.1.1 0 0c0 .1.1.1 0 0zm-1.2 9.9zm-1.7-10.4c.2 0-.2-.1 0 0h0zm.1.2c-.2-.1-.1 0 0 0h0zm-.2-.2h0zm-.2 0c-.4.2 1.3-.3 0 0h0zm.3.1c-.2-.1.1 0 0 0zm5.1-.9h-.4c.5.1.1-.1.4 0zm-2.8-.3zm-.8-.3h-.1.1zm1.6.4zm0 .1zm-2.5-.1c-.3-.5 1.5-.1 2.1.3 0-.1-.3-.2-.1-.2-.1 0-.1-.1 0-.1-.1 0-.1 0 .1-.1-.7.2-.9-.4-1.2-.4.1 0 .1 0 0-.1l-.1-.1c.2.1 4.4-.5 4.3.4v.1c0 .2-.9.1-1.1.1.1 0 .1 0 .2.1-.6 0-.9.5-1.6.5-.1 0 .2.1.1 0 .5.3-.8 1.1-1.8.6v-.2c0-.3.5 0 .7-.1h-.1c-.1 0 0 0 .1-.1-.1 0-.4-.1-.4-.2-.5.3-.9 0-1.2-.5 0 .1 0 .1 0 0zm3-.4c0-.1-.1 0 0 0h0zm-1.3 0c-.1-.1 0 0 0 0h0zm0 .3c-.4 0-.2.1 0 0zm1 .7c-.2 0-.1 0 0 0h0zm-.2.1c.1-.1 0 0 0 0h0zm0-.6c.1-.1.1-.1 0 0 0-.1 0-.1 0 0 0-.1 0-.1 0 0 0-.1 0 0 0 0s-.1 0-.2.1c-.2 0 .1-.1.2-.1zm-.5 1h0 0zm-.4-.1h0 0zm0-.3c0 .1 0 .1 0 0h0zm-.1-.2c-.1.1.1 0 0 0h0zm.8-.4h0 0zm-1.6.9s.4-.1 0 0zm-1.6 2c.2 0-.1 0 0 0zm2.1.9s0 .1.1.1-.1 0-.1-.1zm-3.7-3.5c.1 0-.2 0 0 0h0zm5.6 4.6s-.1 0 0 0c-.2-.1 0 0 0 0zm-5.3-4.4c-.6-.2.7.2 0 0h0zm1.1 2.4c0 .1 0 0 0 0-.1 0-.1 0 0 0zm4.4-1.7h.1-.1zM34 21.3s.1 0 .1-.1h0l-.1.1c.1-.1.1-.1 0 0 0-.1.1-.1 0 0zm-.3 8.6c0-.1 0-.1 0 0zM44 25.8c0 .1.1 0 0 0zm-.1-.5s0 .1 0 0h0zm-10.9.6s-.2-.1-.2 0c.1-.1.2 0 .2 0zm-1 14.7c0 .1 0 0 0 0zm.2-1.3c.1.1.2.2 0 0h0zm0 1.6l-.2-.1.2.1zm2.3-10.5c.5.1.1 0 0 0h0zm0 0h0 0zm-1.1-.4c-1.6-.9-.8-.4 0 0h0zm0 0s-.1 0 0 0h0zm-1-.6h0 0zm10.8-3.3c1.6-.2-.1 0 0 0zm.6-.9c.1.1 0 0 0 0zm.2.8c.1.5.2.8 0 0h0zm-2-4.8c0 .1 0 0 0 0h0zm2.3 7.7c-.7.6.2-1 .1-2.1-.1.1-.2-.1-.3-.1s-.2.1-.2.1c0 .8-.8 2.1-2.1 3.6-.3.4-.2 1.1-.3 1.5-1.3 4 4.1-4.1 2.8-3zM24.2 22l.1-.1s-.1 0-.1.1zm-1.9 6.4c.2.1-.1 0 0 0zm1.3-6.2c.1.2-.2-.2 0 0h0zm-1.8.4c.3.1-.4 0 0 0h0zm-.3.2c0 .1 0 .2 0 0h0zm0 0s0-.1 0 0h0zm4.9 1c-.1-.1 0 0 0 0h0zm0 0c-.5-.2-.3-.1 0 0h0zm4.5-4.6c-.2 0-.2.1 0 0h0zm4.5 4.1c-.1 0-.1 0 0 0-.1.1 0 0 0 0zm-4.2-4.9c-.1 0 0 .1.1.1s-.1-.1-.1-.1zm4.6 4.8c.1-.3-.1.3 0 0h0zm-1.5-3.8s-.1 0 0 0h0zm-2.5-1.1c.6.6.4.4 0 0h0zm1 .7h0c0-.1-.1 0 0 0zm-1.7 1.8c.1-.1-.1 0 0 0h0zm1-1.7s0 .1 0 0c.1.1 0 0 0 0zm-1 .6c-.8.3.9.7.7.3s-.3-.4-.7-.3zm2.7 3c-.2-.1.2.1 0 0zm-1.5-3.4c-.5-.4.1.1 0 0zm.9 2.6s-.1-.1 0 0c-.1-.1-.1 0 0 0zm.3.6c0 .1 0 .1-.1.1-.1.1-.1.1 0 0 0 .1 0 .1 0 0 .1 0 .2-.1.3-.2 0 0-.2.1-.3.2l.1-.1zm-.8-3.3c.2.1.5.2 1.3.3-.3-.1-.8-.2-1.3-.3h0-.1c0-.1.1 0 .1 0zm1.5.3h0zm-2.3-.6c.4.1.5.2.7.3-.3-.1-.5-.2-.6-.2 0 0 0-.1-.1-.1s0 0 0 0zm.4.1h0 0zm1.7.5h.2-.2zm-4.7-.9h0zm1.3.3c-.5-.3-.7-.1-1.3-.3h-.1l-1-.1c.6.1.9.1.9.1-1.2.3 1.7.4 1.5.3zm3.5 3.6c0 .1-.1.2 0 0h0zm-4.7-4h0 0zm6 .6h-.1.1zM34 21.2h0 0zm-.3 8.6zm3.4-3.9c0 .1.1 0 0 0h0zm0 .1c0-.1 0-.1 0 0zm4.7-2.5c0 .1 1 .2 1.1 0 .5-.7-.8-.4-.8-.4-.6-.5-.3.3-.3.4zm2.2 2.3c.1 0 .1-.1 0 0zm0-.6c-.1 0-.1 0 0 0-.1 0 0 0 0 0zm-.1.1h0 0zm-11.6 14c-.2-.1.2 0 0 0h0zM22.1 22.6c.1-.1.1-.1 0 0h0zm13.5 3.5h0zm-8.7-5.9c.2-.2-.1 0 0 0h0zm9 6c-.1-.1-.2-.1-.3-.1.1.1.1.2.3.1zm-2-5.1c.2-.1-.3 0 0 0zm4.6 13.2c.9 2.5-6.1 4.6-5.7 6.6-.5 0-.5.1-.9-.2.1.1 0-.2 0-.4 0 0 0-.1 0 0l.1-.1s-.1-.1 0-.1c0-.1-.1 0-.1 0 0 .1 0 .1-.1.1 0-.1 0-.1 0 0v-.1c-.3-.3.8-.8.5-1.2.9.1-.4-7.5.1-7.4-.7-.2-4-1.9-4.2-3.5 0 0-.1-.5-.3-.4 0 .3.7 1.2.5 1.4.1 0-1.9-4.5-2.4-5.7v.1.1s-.1-.2-.1 0v-.1c.1 0-.1-.5 0-.6-.1.2 0 .3-.1.4.1-.1 0-.4-.1-.6v.1h0v.4c-.4-.5-2-1.3-2.1-1.3-.4.2-1 1.2-1.5 1 0 0 0-.1-.1 0 0 0-.1 0-.2.1.1 0 .6-.4.8-.6v-.1c-.1 0-.2-.1-.1-.1-.6-.2-1.5-.5-.2-1.3.3.2 2.2-.3 4.1-.5 0 0 0 .2 0 0 1.4-.1 2.7 0 3.4.9v.1s0-.1 0 0c-.1-.2-.2-.5.3-.4-.2-.1-2.6-.6-.9-.5-.3-.1-1.3-.4-.6-.7-.7.2-.5.2-1.2.1.1 0 .1-.1 0-.1.1 0 .4-.5.3-.5.1 0 .1 0 0-.1.6 0 2.4.6 2.7.6 0 .2-.1 1 .4 1.1-.5 0 .2.3-.7.1.8.6.9.1.9.1s.1 0 0-.1c.1 0 .2 0 .2-.2.3-.2.2.7.2.6h.1c-.1-.1.1-.2.3-.3-.6.3.1-1.3 0-1.4.1.1.1-.1 0-.1.1 0 .6.1.6.1-.1 0-.1.1 0 .1-.2 1-.4.8.1 1.4-.7.6.3 2.1.6 3.2h0v.2.2c.1 0 .1 0 .1.1.1-.1 0 0 .1 0-.1-.3 0-.6.2-.9 0 0-.1-.1 0 0 .2-.4.4-.7.3-1.2 0 0 2.2 1.3 1.9.6.2.6 1.3 2.5 1.3 2.5-.1.1 0 .1 0 .1h0c.1.1 0 .1 0 .2-.1 0-.1 0-.2.1 0 0 .2-.1 0-.1l-.5-.1c-.3-.3.2.1 0-.1l.4-.6c-.3.1-.6 0-1 0 0 0 .1 0 .1.1.3.3-.1-.1-.1-.1-.3 0-.6.1-.8.3.6-.4.7.1.8.4-1.4-.3-1.7 2.4-2.8 3.1-.5.3-.8.3-1 .1v.3c.4 2.2 1 .6 2 1.5 0 0-.3.4-.1.5.3 0 4.1.9 4.7 2.8 0 0 0-.1 0 0h0zm-3.7-8.6c.1-.1 0 0 0 0h0zm-2.5.6c0-.1 0 0 0 0h0zm.7.1c-.6.2.7-.2 0 0h0zm.5 1.3c.2 0 0-.1 0 0h0zm0-.1s.1-.1 0 0h0zm.3-.6c0 .1 0 0 0 0h0zm-.1.4c0-.4 0-.3 0 0h0zm-.3-1c-.1 0-.1 0 0 0h0zm-.5-.6c-.8-.2 1 .6 0 0h0zm-.9-3.6h0 0zm-6.2.3h0c.1.1.1.1 0 0h0c.1.1.1.1 0 0 .1.1.1.1 0 0zm.4.4zm0 0zm.9 1.3c-.1 0 0 0 0 0h0zm.3.4c.3.2-.4-.3 0 0h0zm1.8-2.3c0-.1-1 .2 0 0h0zm.8-1.2s-.1 0 0 0h0zm.1-.2c-.1 0 0 0 0 0h0zm1 3.4c0 .1 0 .1 0 0-.4-.7.1.4 0 0zm.1.3c-.1-.3-.1.3 0 0h0zm1.4 6.8h0 0zm-.5 8.4zm0 .6h0 0zm.1.2c0 .1 0-.1 0 0h0zm.2.2c.1 0 0-.1 0 0h0zm3.9-7.5c0 .1.1 0 0 0h0zm.1-.1c-.2 0 .2 0 0 0h0zM32 40.3c0-.1 0 0 0 0zm-1.4-20.8s0 .1 0 0c.1.1.1.1 0 0zm-4 .7zm.2-.1c-.1 0-.2 0 0 0h0zm9.7 2zM34 20.2s.1.1 0 0h0zm-.5.8c-.1 0-.3 0-.4.1-.5-.5-.7-.8.2-1.1l.1.1c-.2.1-.3.3-.2.4.7 0 3.1.3 3.3 1.7v.1s-.2.1-.1.1h-.1s-.3.1-.1.2c-.1-.1-.5-.5-.5-.4v.1c.4.1.3.7.3.7-.1-.1-.1 0 0 .1-.4-.2-.6-.2-.2.1-.2-.2-1.6-.7-1.6-.8-.1-.2.2-.4.4-.6-.2 0-.1 0 0 0 .1-.1.2-.3 0-.5-.1-.1-.4-.2-.7-.3h-.4zm1.7.1c0-.1 0-.1 0 0h0zm.2 1.6c0 .1 0-.1 0 0h0zm-.2-1.7c.1 0 0-.1 0 0h0zm-.1-.1h0zm-1.8 0c-.2 0 .1 0 0 0h0zm0-.4c-.1 0 .2.1 0 0h0zm2.8 5.8c.1-.1-.1-.1 0 0 .1-.1-.1-.1 0-.1v-.1l-.1.1.1.1c-.1-.1-.1 0 0 0zm-2.8-6.4h0 0zm-.3 1.5c-.1.1.1-.4 0 0 .1-.2.2-.2.3-.3l-.1-.1c-.2.1-.3.1-.5.2 0 .1.1.1.2.2 0 .1 0 .1.1 0zm1-1.2c.5.5.1.1 0 0h0zm1.6 5.9s0 .1 0 0h0zm-.9-5.5c0-.1-.1 0 0 0-.1 0-.1 0 0 0zm-1.8 5.2h0 0zm-.4-4c.2.2.1 0 0 0h0zm2.6-.9zm-4 3.4zm3.6 6.1c.1 0 0-.1 0 0h0zm0 0c-.1-.1-.2-.2 0 0h0zm-.4-.2c-.1 0 0 0 0 0h0zm0 0c-.4-.2-1.2-.4 0 0h0zm-1.1 0c.1.1-.4-.3 0 0h0zm4.5-9.1s0 .1 0 0c0 .1 0 .1 0 0zm-2.2-2h.1-.1zm8.4 6s-.1 0 0 0h0z" fill="#414042"/><path d="M31.5 43.1v4.7" fill="none" class="l m"/><use href="#B" fill="#e6e7e8"/><use href="#B" fill="none" class="l m"/><g fill="#414042"><circle cx="19.9" cy="16.8" r="1.5"/><circle cx="43.6" cy="40.9" r="1.5"/></g><g fill="#36d7b7"><circle cx="30.1" cy="24.6" r="1.6"/><circle cx="34.7" cy="34" r=".9"/><circle cx="35.2" cy="24.2" r=".9"/><circle cx="31.7" cy="30.1" r=".9"/><circle cx="32.3" cy="20.4" r=".6"/></g><defs ><path id="B" d="M40.6 49.5h0a1.58 1.58 0 0 0-1.6-1.6H23.9a1.58 1.58 0 0 0-1.6 1.6h0 18.3z"/></defs></svg>