<?xml version="1.0" standalone="no"?>
<!DOCTYPE svg PUBLIC "-//W3C//DTD SVG 20010904//EN"
 "http://www.w3.org/TR/2001/REC-SVG-20010904/DTD/svg10.dtd">
<svg version="1.0" xmlns="http://www.w3.org/2000/svg"
 width="1280.000000pt" height="871.000000pt" viewBox="0 0 1280.000000 871.000000"
 preserveAspectRatio="xMidYMid meet">
<metadata>
Created by potrace 1.15, written by Peter Selinger 2001-2017
</metadata>
<g transform="translate(0.000000,871.000000) scale(0.100000,-0.100000)"
fill="#000000" stroke="none">
<path d="M0 4355 l0 -4355 6400 0 6400 0 0 4355 0 4355 -6400 0 -6400 0 0
-4355z m8822 1082 c14 -13 116 -16 137 -3 22 14 109 8 142 -10 28 -14 88 -21
214 -25 11 0 56 -5 101 -11 63 -8 85 -8 105 3 26 14 99 21 99 10 0 -11 114 -9
121 2 5 6 18 6 38 -1 24 -9 31 -8 29 1 -4 16 5 18 52 11 47 -8 50 -15 13 -42
-38 -28 -25 -36 28 -18 52 19 76 20 81 5 2 -6 20 -11 41 -11 20 0 40 -4 43 -9
7 -12 46 -2 109 26 46 21 62 23 195 21 93 -2 154 -7 169 -15 21 -12 26 -10 56
19 26 25 37 30 59 24 16 -4 32 -1 41 6 20 17 255 28 255 12 0 -6 18 -13 40
-17 22 -4 42 -11 45 -15 3 -5 12 -7 19 -4 9 3 26 -14 47 -45 18 -28 38 -51 45
-51 14 0 30 -44 26 -67 -2 -7 9 -35 23 -62 31 -62 31 -65 -1 -80 -19 -8 -25
-17 -21 -32 4 -14 -9 -39 -41 -82 -32 -41 -48 -74 -50 -97 -1 -19 -9 -47 -16
-62 -14 -28 -16 -176 -3 -208 12 -29 14 -119 3 -124 -6 -3 1 -14 17 -26 15
-12 27 -28 27 -36 0 -8 6 -17 14 -20 22 -8 16 -54 -12 -81 -22 -22 -24 -30
-19 -75 4 -28 10 -55 15 -62 5 -6 14 -26 20 -43 9 -26 8 -36 -4 -48 -25 -24
-127 -24 -155 1 -17 15 -59 19 -59 6 0 -10 -103 -32 -110 -23 -3 4 -40 8 -82
9 -65 2 -77 0 -72 -12 4 -12 -3 -15 -34 -14 -31 0 -41 5 -45 19 -5 18 -13 19
-119 14 -152 -7 -327 -6 -358 2 -14 3 -60 7 -102 7 -42 1 -80 4 -84 8 -4 4
-20 -2 -36 -14 -25 -17 -38 -20 -86 -14 -32 4 -83 8 -115 11 -31 2 -62 7 -67
10 -25 15 -229 22 -239 8 -25 -33 -37 -34 -172 -2 -89 20 -169 32 -239 35 -58
2 -123 6 -145 10 -22 3 -58 8 -80 10 -22 2 -50 7 -63 9 -40 9 -99 -14 -142
-55 -27 -26 -51 -40 -68 -40 -15 0 -52 -12 -82 -26 -49 -23 -67 -26 -167 -25
-61 0 -132 5 -158 11 -25 6 -50 8 -53 6 -12 -7 -284 -35 -447 -46 -224 -15
-245 -18 -255 -44 -12 -27 -31 -48 -55 -62 -21 -11 -146 -11 -164 0 -6 4 -27
0 -48 -9 -21 -9 -49 -13 -65 -10 -28 7 -58 -11 -58 -35 0 -8 -15 -10 -47 -7
-193 21 -530 34 -729 28 -89 -2 -117 0 -143 14 -44 22 -205 29 -222 9 -13 -16
-54 -20 -44 -4 4 6 -9 10 -32 10 -22 0 -45 6 -51 13 -7 6 -23 13 -35 13 -12 1
-44 6 -72 12 -27 6 -82 8 -121 5 -59 -4 -72 -2 -77 11 -4 9 -18 16 -32 16 -14
0 -25 5 -25 10 0 6 -7 10 -16 10 -8 0 -12 5 -9 10 11 18 -11 11 -30 -10 -13
-14 -25 -18 -43 -13 -17 4 -23 2 -18 -6 10 -16 -7 -14 -98 14 -67 20 -96 24
-161 20 -44 -2 -119 -4 -167 -4 -48 0 -97 -5 -108 -11 -11 -6 -40 -12 -63 -13
-23 -2 -48 -6 -55 -11 -6 -4 -17 -4 -22 -1 -6 4 -42 1 -80 -6 -57 -10 -78 -10
-112 1 -24 8 -47 12 -53 11 -13 -3 -19 -3 -157 2 -85 3 -118 2 -118 -7 0 -7
-28 -11 -86 -11 -47 0 -88 -3 -90 -7 -3 -4 -31 -12 -64 -19 -33 -6 -60 -16
-60 -21 0 -6 -9 -8 -20 -5 -11 3 -20 1 -20 -4 0 -14 -48 -11 -53 4 -3 9 -10 9
-23 2 -27 -15 -74 -7 -67 10 7 21 -62 53 -85 39 -12 -8 -21 -5 -38 13 -14 15
-35 25 -52 25 l-30 1 -6 81 c-3 45 -8 188 -11 318 -3 131 -7 244 -10 250 -2 7
-7 103 -11 213 -4 110 -8 216 -9 236 -2 56 27 164 45 164 8 0 44 10 80 23 36
13 79 26 95 29 31 4 105 24 186 49 25 8 61 14 80 14 19 -1 77 3 129 8 52 5
101 6 109 2 7 -4 32 -3 54 2 28 6 53 5 86 -6 87 -27 156 -29 203 -5 37 19 49
20 102 12 34 -6 88 -9 120 -7 32 2 64 0 70 -4 21 -17 123 -13 202 7 63 16 87
18 119 10 77 -20 120 -27 128 -22 4 2 14 -1 22 -7 11 -9 23 -9 48 -1 46 16
134 16 152 1 10 -8 19 -9 28 -3 6 6 29 16 50 22 20 7 37 16 37 20 0 4 17 14
38 20 33 11 43 11 70 -3 28 -15 32 -15 32 -1 0 19 57 17 64 -2 7 -17 36 -17
36 0 0 8 3 8 9 -2 6 -8 22 -13 40 -12 78 6 303 -4 331 -15 8 -4 49 -8 91 -9
42 -2 102 -10 133 -19 31 -9 62 -16 69 -14 7 1 22 -1 33 -5 12 -4 33 -3 47 2
18 7 28 7 33 0 3 -6 10 -6 17 -1 13 10 51 0 61 -17 4 -6 15 -5 31 3 16 8 43
11 70 8 30 -3 51 0 62 9 12 10 15 10 9 1 -5 -9 1 -12 26 -10 18 1 39 6 46 11
8 6 12 5 12 -2 0 -7 5 -9 10 -6 6 3 17 -1 26 -10 10 -10 23 -13 33 -9 9 4 43
13 76 20 33 8 67 18 76 23 11 7 21 5 31 -5 15 -15 89 -20 166 -11 33 3 45 0
55 -13 11 -16 17 -17 50 -7 20 7 37 15 37 19 0 5 4 8 10 8 5 0 6 -8 3 -17 -5
-13 -2 -15 12 -10 14 6 16 5 6 -6 -9 -12 -2 -16 41 -21 28 -4 57 -10 62 -14
16 -10 76 -10 82 0 3 4 24 8 48 8 24 0 57 7 74 16 18 8 42 14 54 13 13 -1 37
4 53 10 25 11 35 10 56 -2 18 -10 31 -11 43 -5 24 13 163 20 171 9 3 -6 15 -7
28 -2 12 4 52 6 90 3 57 -3 75 0 119 22 37 19 68 26 108 26 31 0 61 5 67 11 7
7 19 8 30 4 29 -12 127 -5 138 9 6 7 35 16 65 19 61 7 128 22 137 31 10 9 20
7 35 -7z"/>
<path d="M5405 5380 c-3 -6 4 -9 19 -8 13 1 22 6 20 10 -7 11 -32 10 -39 -2z"/>
<path d="M4360 5339 c0 -5 5 -7 10 -4 6 3 10 8 10 11 0 2 -4 4 -10 4 -5 0 -10
-5 -10 -11z"/>
</g>
</svg>
